<?xml version="1.0" standalone="no"?>
<!DOCTYPE svg PUBLIC "-//W3C//DTD SVG 20010904//EN"
 "http://www.w3.org/TR/2001/REC-SVG-20010904/DTD/svg10.dtd">
<svg version="1.0" xmlns="http://www.w3.org/2000/svg"
 width="16.000000pt" height="16.000000pt" viewBox="0 0 16.000000 16.000000"
 preserveAspectRatio="xMidYMid meet">
<metadata>
Created by potrace 1.11, written by Peter Selinger 2001-2013
</metadata>
<g transform="translate(0.000000,16.000000) scale(0.003143,-0.003143)"
fill="#000000" stroke="none">
<path d="M0 4714 c0 -354 1 -376 18 -369 42 19 163 24 215 9 98 -29 207 -51
207 -43 0 5 11 4 25 -1 14 -5 25 -7 25 -4 0 4 7 1 15 -6 8 -7 15 -18 15 -25 0
-12 70 -124 74 -117 4 10 56 -23 56 -35 0 -8 5 -11 11 -7 6 3 3 -8 -6 -26 -23
-45 -15 -58 37 -56 24 1 49 6 56 10 7 4 12 2 12 -6 0 -9 3 -9 10 2 6 10 10 11
10 3 0 -23 84 -16 116 9 15 13 24 17 20 9 -7 -10 -3 -11 15 -6 32 10 32 11 21
31 -7 13 -4 22 15 40 21 19 29 21 54 12 16 -5 29 -14 29 -19 0 -5 8 -9 18 -9
25 0 38 -12 45 -41 6 -25 5 -26 -66 -39 -248 -44 -414 -246 -485 -592 -15 -71
-20 -85 -32 -78 -10 7 -11 10 -2 10 6 0 12 5 12 11 0 5 -4 8 -9 5 -5 -4 -12 0
-14 6 -3 8 -6 6 -6 -4 -1 -10 -6 -18 -12 -18 -7 0 -18 8 -25 18 -12 15 -13 15
-14 1 0 -9 -7 -20 -16 -23 -21 -8 -31 -7 -18 2 13 8 0 52 -15 52 -6 0 -15 -9
-21 -20 -6 -11 -19 -20 -30 -20 -23 0 -35 -16 -18 -23 10 -4 10 -8 -2 -16 -8
-5 -17 -8 -21 -5 -4 2 -12 -3 -19 -11 -16 -19 -30 -10 -30 21 0 13 -5 24 -10
24 -6 0 -9 3 -9 8 4 21 -3 23 -21 7 -11 -10 -23 -15 -27 -12 -3 4 -1 7 6 7 7
0 9 5 6 11 -5 7 -15 5 -31 -6 -14 -9 -29 -13 -33 -10 -5 3 -14 -7 -20 -22 -10
-26 -11 -25 -7 15 2 23 0 40 -5 36 -5 -3 -9 -1 -9 4 0 15 -50 24 -66 12 -7 -7
-18 -9 -24 -5 -5 3 -10 -1 -10 -9 0 -8 5 -18 10 -21 15 -10 12 -35 -5 -35 -12
0 -15 -14 -15 -70 0 -49 4 -70 13 -70 9 0 9 -2 1 -8 -7 -4 -12 -33 -13 -64 0
-45 3 -58 14 -58 8 0 15 6 15 13 0 6 5 4 11 -5 14 -25 30 -22 63 12 24 26 35
31 75 29 25 0 57 2 70 6 16 6 22 5 18 -2 -4 -6 3 -13 15 -16 14 -4 18 -3 11 4
-12 12 -5 57 11 66 16 11 46 11 46 1 0 -5 5 -6 10 -3 6 4 7 12 3 18 -4 7 1 6
11 -2 14 -12 19 -12 26 -2 4 8 12 11 16 8 5 -3 14 1 21 8 9 10 8 17 -8 31 -23
21 -24 28 -3 60 13 19 20 22 30 13 8 -6 23 -9 34 -6 11 3 20 0 20 -6 0 -6 3
-8 6 -4 12 12 34 -22 33 -50 l-1 -28 -8 25 c-7 23 -11 23 -14 1 -2 -16 -16
-25 -16 -11 0 7 -3 10 -6 7 -11 -10 17 -37 37 -37 11 0 19 -4 19 -10 0 -5 -7
-7 -15 -4 -10 4 -15 0 -15 -13 0 -10 -6 -25 -13 -32 -10 -10 -9 -12 3 -9 8 2
20 12 27 23 12 19 12 18 13 -7 0 -16 -4 -28 -10 -28 -5 0 -10 -4 -10 -10 0 -5
6 -7 13 -4 10 3 17 -14 25 -63 19 -106 71 -255 138 -392 42 -85 59 -130 52
-138 -6 -8 -4 -10 9 -7 12 3 23 -5 34 -24 15 -26 15 -35 3 -83 -8 -30 -12 -66
-9 -81 5 -19 -2 -39 -21 -70 -23 -37 -27 -53 -27 -115 0 -40 -4 -73 -9 -73 -5
0 -7 4 -3 9 3 5 1 12 -3 15 -11 6 -10 -84 1 -101 9 -14 -41 -56 -56 -46 -5 3
-7 1 -3 -5 3 -6 -7 -13 -25 -17 -21 -5 -34 -3 -39 5 -5 9 -9 9 -14 1 -9 -14 1
-31 17 -31 23 0 16 -47 -9 -60 -13 -7 -21 -17 -18 -22 3 -4 0 -8 -5 -8 -6 0
-11 -4 -11 -10 0 -19 16 -10 56 30 21 22 46 40 54 40 11 -1 10 -4 -5 -16 -17
-13 -18 -16 -5 -24 13 -8 12 -10 -2 -10 -10 0 -18 -7 -18 -16 0 -11 -5 -14
-17 -10 -10 4 -14 4 -10 0 6 -6 -33 -32 -58 -38 -5 -2 -23 -8 -38 -14 -16 -7
-37 -12 -48 -12 -10 0 -19 -4 -19 -10 0 -9 -17 -8 -90 6 -20 4 -22 2 -10 -6
13 -9 13 -12 -3 -21 -22 -13 -47 -62 -46 -91 0 -19 3 -17 13 11 13 37 33 49
84 50 29 1 32 -1 23 -18 -8 -15 -7 -20 5 -25 22 -9 24 -8 24 9 0 8 5 15 10 15
6 0 10 -4 10 -10 0 -5 7 -10 15 -10 9 0 12 6 9 15 -8 19 0 19 16 1 9 -12 5
-17 -30 -26 l-41 -11 3 -55 c2 -29 5 -54 8 -54 19 1 31 20 25 39 -7 23 -9 23
78 26 43 1 57 -2 53 -11 -3 -8 1 -11 10 -7 25 9 17 -45 -8 -58 -13 -7 -39 -24
-59 -40 -32 -25 -36 -26 -46 -11 -10 15 -12 13 -24 -13 -6 -16 -13 -34 -14
-40 -4 -31 -20 -45 -49 -46 -24 0 -27 -2 -12 -8 10 -4 34 -6 53 -4 24 1 32 -1
27 -10 -5 -9 -3 -9 7 0 15 15 85 17 94 3 7 -11 -34 -60 -51 -60 -7 0 -19 -6
-26 -12 -26 -25 -76 -37 -103 -25 -14 7 -25 14 -25 17 0 10 -74 -2 -89 -14
-11 -9 -13 -6 -6 14 11 36 24 49 63 66 19 8 32 17 28 21 -4 4 -22 -1 -41 -11
-44 -24 -79 -92 -68 -133 l7 -28 7 30 7 30 1 -27 c0 -16 5 -28 10 -28 17 0 22
-34 7 -49 -13 -12 -16 -12 -20 0 -12 36 -16 42 -12 15 2 -18 -3 -35 -14 -46
-30 -30 -40 -56 -40 -104 0 -40 5 -51 45 -93 25 -25 44 -47 42 -48 -1 -1 -33
-18 -72 -37 -38 -20 -86 -45 -105 -56 -19 -12 -57 -33 -83 -47 -26 -14 -45
-30 -42 -35 3 -6 -1 -7 -9 -4 -14 5 -16 -30 -16 -325 l0 -331 2305 0 c1268 0
2305 1 2305 3 0 14 -52 152 -73 192 -28 57 -72 114 -60 80 6 -17 5 -18 -9 -7
-9 7 -18 22 -21 33 -5 17 -3 18 11 7 9 -7 14 -8 11 -3 -3 6 -11 24 -19 40 -8
17 -21 38 -29 48 -8 9 -11 17 -8 17 4 0 -1 9 -10 19 -9 11 -20 18 -24 16 -10
-7 -81 74 -74 85 4 6 -1 7 -11 3 -14 -5 -16 -3 -11 11 7 17 -9 41 -51 79 -7 7
-34 34 -60 60 -26 27 -82 70 -124 95 -60 36 -80 54 -91 82 -18 48 -12 60 31
60 21 0 43 4 51 9 8 5 -5 7 -33 5 -28 -2 -46 1 -46 7 0 7 10 9 23 5 15 -3 40
5 75 25 62 35 69 56 10 29 -24 -11 -62 -20 -86 -20 -64 0 -70 26 -27 125 18
42 36 79 39 82 9 10 7 25 -3 19 -4 -3 -6 7 -3 22 4 23 6 24 12 7 6 -17 7 -17
13 -1 10 24 9 26 -8 26 -24 0 -17 14 15 33 17 10 30 23 30 29 0 5 7 7 16 4 11
-4 14 -1 9 13 -3 11 4 40 17 66 l23 48 6 -39 c5 -30 7 -21 8 37 0 42 -6 98
-14 126 -17 56 -68 137 -122 194 -30 32 -32 37 -18 49 19 16 20 31 0 24 -8 -3
-35 7 -59 22 -38 24 -43 31 -34 47 7 13 7 22 -1 30 -7 7 -12 5 -17 -6 -9 -24
-19 -21 -33 9 -13 30 -7 44 11 26 7 -7 19 -12 27 -12 9 0 2 12 -19 30 -19 17
-29 29 -21 28 8 -2 19 7 26 19 l11 22 33 -26 c24 -19 35 -23 40 -14 6 9 11 8
21 -4 11 -13 10 -15 -4 -9 -19 7 -22 -12 -4 -20 13 -5 3 -16 -39 -43 -16 -10
-16 -11 4 -6 12 3 27 11 33 18 9 11 19 10 53 -6 51 -23 76 -23 102 -2 18 14
18 15 2 9 -12 -4 -29 2 -44 14 -14 11 -30 20 -35 20 -18 0 -38 29 -38 54 0 29
-17 35 -22 9 -3 -15 -9 -13 -33 13 -17 18 -34 38 -40 46 -5 8 -19 24 -30 36
-16 19 -17 26 -7 43 7 11 11 23 8 27 -2 4 2 13 10 20 11 10 16 9 26 -7 6 -10
17 -17 25 -14 14 6 33 -34 26 -54 -3 -7 -1 -13 5 -13 5 0 14 -17 20 -37 5 -21
10 -30 11 -20 1 9 6 17 12 17 5 0 8 4 5 8 -9 15 -17 132 -9 132 5 0 8 31 9 70
0 65 3 71 30 92 38 29 187 169 243 227 134 141 236 284 272 382 12 32 24 59
28 59 3 0 6 21 6 46 0 36 5 50 24 65 16 13 19 19 8 19 -23 0 -27 22 -8 44 15
17 15 18 -4 15 -16 -3 -20 -13 -21 -42 -1 -42 -9 -56 -17 -32 -4 8 -2 15 4 15
6 0 2 8 -9 18 -12 9 -22 24 -24 32 -2 7 -26 34 -55 60 -41 36 -49 48 -42 63 6
10 21 17 39 17 17 0 33 0 37 1 4 0 9 -5 12 -12 2 -7 -1 -9 -8 -5 -6 4 -11 3
-11 -3 0 -5 8 -12 18 -14 14 -4 14 -6 -5 -12 -13 -4 -23 -11 -23 -16 0 -5 0
-11 0 -14 0 -3 3 -5 6 -4 3 0 12 -7 19 -17 18 -26 39 -25 52 2 10 22 9 23 -9
13 -17 -9 -19 -8 -16 8 2 10 13 19 26 21 18 3 23 -3 28 -27 8 -38 21 -40 26
-3 l4 27 12 -25 c12 -23 17 -25 79 -22 36 1 74 7 85 13 23 12 33 6 25 -15 -4
-11 -19 -14 -52 -12 -36 2 -45 -1 -40 -12 3 -7 5 -15 5 -18 0 -2 11 1 25 8 30
14 52 -1 58 -40 3 -17 5 -11 6 17 1 42 2 43 16 25 14 -18 14 -18 15 9 0 33 17
36 30 5 l9 -23 0 23 c1 14 7 22 19 21 10 0 12 -3 5 -6 -25 -10 -12 -22 22 -21
19 1 35 5 35 10 0 4 4 8 10 8 5 0 9 -6 7 -12 -1 -9 9 -12 31 -12 17 1 32 -2
32 -7 0 -5 5 -9 10 -9 6 0 10 19 9 43 -1 33 -2 37 -8 18 -4 -14 -13 -26 -21
-29 -12 -3 -13 -2 -1 6 8 6 10 15 6 22 -5 8 -1 18 9 26 18 13 13 40 -5 29 -5
-3 -6 1 -2 10 5 13 7 14 14 3 5 -7 9 375 9 850 l0 862 -2545 0 -2545 0 0 -376z
m2230 -388 c0 -2 -12 -11 -27 -20 l-28 -17 24 20 c23 21 31 25 31 17z m-170
-116 c0 -5 -5 -10 -11 -10 -5 0 -7 5 -4 10 3 6 8 10 11 10 2 0 4 -4 4 -10z
m-652 -68 c16 16 51 -1 68 -33 8 -16 18 -27 23 -25 4 3 15 -4 24 -15 18 -20
42 -24 79 -11 14 6 32 4 47 -4 22 -11 22 -12 3 -18 -11 -4 -86 -2 -168 4 -82
5 -167 10 -189 10 -33 0 -41 4 -42 20 -2 21 44 60 70 60 9 0 18 4 22 10 3 6
15 6 29 0 15 -5 27 -5 34 2z m295 -91 c3 -12 16 -21 33 -24 23 -3 21 -4 -11
-6 -37 -1 -41 2 -43 24 -2 29 13 34 21 6z m-475 2 c-10 -2 -26 -2 -35 0 -10 3
-2 5 17 5 19 0 27 -2 18 -5z m672 -33 c-6 -11 -18 -20 -28 -19 -14 0 -14 2 -2
6 8 3 19 12 23 19 13 22 19 16 7 -6z m1497 -162 c-3 -7 -5 -2 -5 12 0 14 2 19
5 13 2 -7 2 -19 0 -25z m106 -9 c30 -1 30 -2 -8 -9 -22 -4 -41 -7 -42 -6 -1 0
2 15 5 31 6 26 7 27 10 8 3 -18 10 -23 35 -24z m70 -15 c-7 -19 -10 -18 -16 5
-3 13 -1 18 9 14 7 -2 10 -11 7 -19z m-163 -4 c0 -5 -2 -10 -4 -10 -3 0 -8 5
-11 10 -3 6 -1 10 4 10 6 0 11 -4 11 -10z m155 -75 c-2 -29 -8 -41 -20 -43
-12 -3 -15 1 -11 15 3 10 1 25 -4 33 -9 13 -12 13 -21 -2 -5 -10 -19 -18 -29
-18 -11 0 -20 -5 -20 -11 0 -5 -5 -7 -10 -4 -24 15 56 60 85 49 10 -4 15 0 15
15 0 12 -5 21 -11 21 -5 0 -7 5 -4 11 13 20 32 -25 30 -66z m-65 58 c0 -17
-19 -35 -29 -29 -6 4 -11 2 -11 -3 0 -6 -4 -11 -10 -11 -11 0 -1 32 14 42 14
10 36 10 36 1z m143 -21 c-17 -11 -28 -88 -14 -96 6 -4 9 -12 6 -17 -7 -10 22
-25 32 -16 3 3 -4 19 -16 35 -24 35 -26 42 -8 42 6 0 18 -14 26 -32 12 -26 16
-29 25 -16 10 13 13 13 25 1 8 -9 23 -12 40 -9 22 5 23 5 8 -5 -10 -6 -25 -8
-33 -5 -9 3 -23 -1 -32 -10 -15 -15 -14 -16 7 -9 16 5 27 2 38 -12 14 -17 14
-17 9 1 -5 15 -2 17 14 13 10 -3 19 -2 18 2 0 3 0 15 1 26 2 20 2 20 16 1 15
-19 15 -19 35 2 24 25 35 28 27 8 -3 -8 1 -20 9 -26 8 -7 14 -18 14 -26 0 -8
11 -12 30 -11 16 1 30 6 30 10 0 5 5 5 11 1 7 -4 8 -9 0 -17 -7 -7 -5 -15 7
-24 19 -16 21 -16 -35 3 -14 5 -15 4 -4 -4 11 -8 10 -11 -6 -16 -17 -6 -57 4
-188 43 -16 5 -82 22 -145 37 -63 15 -118 31 -123 36 -4 4 -4 6 -1 4 3 -3 16
-1 29 4 17 7 25 5 29 -6 9 -23 29 -16 51 16 11 16 26 30 33 30 6 0 12 8 12 18
0 21 8 32 24 32 7 0 6 -3 -1 -8z m287 -2 c0 -5 -4 -10 -10 -10 -5 0 -10 5 -10
10 0 6 5 10 10 10 6 0 10 -4 10 -10z m-504 -36 c-4 -9 -9 -15 -11 -12 -3 3 -3
13 1 22 4 9 9 15 11 12 3 -3 3 -13 -1 -22z m401 10 c-3 -3 -12 -4 -19 -1 -8 3
-5 6 6 6 11 1 17 -2 13 -5z m43 -4 c0 -5 -2 -10 -4 -10 -3 0 -8 5 -11 10 -3 6
-1 10 4 10 6 0 11 -4 11 -10z m137 4 c-3 -3 -12 -4 -19 -1 -8 3 -5 6 6 6 11 1
17 -2 13 -5z m-217 -19 c0 -8 -4 -15 -10 -15 -5 0 -10 -7 -10 -15 0 -18 -2
-18 -35 -3 -29 13 -34 32 -6 23 10 -3 24 1 31 10 16 19 30 19 30 0z m130 -10
c0 -8 -5 -15 -11 -15 -7 0 -9 -9 -6 -22 6 -20 5 -20 -11 -3 -13 13 -14 19 -4
22 6 3 12 11 12 19 0 8 5 14 10 14 6 0 10 -7 10 -15z m-90 -5 c0 -5 -7 -10
-16 -10 -8 0 -12 5 -9 10 3 6 10 10 16 10 5 0 9 -4 9 -10z m-395 -10 c3 -5 1
-10 -4 -10 -6 0 -11 5 -11 10 0 6 2 10 4 10 3 0 8 -4 11 -10z m885 6 c0 -3 -4
-8 -10 -11 -5 -3 -10 -1 -10 4 0 6 5 11 10 11 6 0 10 -2 10 -4z m-123 -38 c-3
-8 -6 -5 -6 6 -1 11 2 17 5 13 3 -3 4 -12 1 -19z m-217 7 c0 -7 -39 -12 -49
-5 -7 4 1 7 18 8 17 0 31 -1 31 -3z m65 -4 c15 -7 11 -9 -19 -9 -26 0 -34 3
-25 9 16 10 18 10 44 0z m-68 -27 c-3 -3 -12 -4 -19 -1 -8 3 -5 6 6 6 11 1 17
-2 13 -5z m151 -7 c15 6 15 5 3 -11 -11 -13 -16 -14 -22 -4 -5 7 -8 18 -8 23
0 6 3 5 5 -2 3 -7 13 -9 22 -6z m-118 -21 c0 -20 43 -29 56 -11 14 19 24 19
24 0 0 -8 4 -15 9 -15 6 0 6 -12 0 -32 -5 -18 -9 -34 -9 -35 0 -6 89 -41 133
-53 26 -7 47 -17 47 -21 0 -5 9 -9 19 -9 11 0 21 -6 24 -12 3 -10 9 -10 27 0
23 14 53 1 36 -15 -4 -4 -11 -1 -15 6 -6 8 -11 9 -15 3 -9 -15 33 -26 49 -12
15 12 25 14 110 23 28 2 40 2 28 0 -13 -2 -23 -11 -23 -20 0 -11 -3 -13 -12
-5 -9 7 -24 5 -50 -8 -43 -21 -59 -20 -118 7 -105 47 -140 62 -235 96 -55 20
-115 39 -133 42 -18 4 -30 11 -26 16 3 5 13 5 24 -1 24 -13 43 -13 35 0 -3 6
0 10 7 11 10 0 10 2 1 6 -15 6 -18 53 -3 53 6 0 10 -6 10 -14z m220 -6 c0 -5
-7 -10 -15 -10 -8 0 -15 5 -15 10 0 6 7 10 15 10 8 0 15 -4 15 -10z m-60 -25
c9 -10 9 -15 1 -15 -6 0 -11 -6 -11 -14 0 -7 -11 -16 -25 -18 -17 -4 -25 -1
-25 8 0 8 6 14 13 14 6 0 19 5 27 10 13 9 13 11 0 20 -8 5 -10 10 -4 10 6 0
17 -7 24 -15z m30 -56 c0 -3 -6 -6 -14 -6 -8 0 -11 8 -8 20 4 14 7 16 13 5 5
-7 9 -16 9 -19z m60 21 c8 -5 11 -10 5 -10 -5 0 -17 5 -25 10 -8 5 -10 10 -5
10 6 0 17 -5 25 -10z m220 -10 c0 -5 -5 -10 -11 -10 -5 0 -7 5 -4 10 3 6 8 10
11 10 2 0 4 -4 4 -10z m-230 -26 c0 -2 -7 -4 -15 -4 -8 0 -15 4 -15 10 0 5 7
7 15 4 8 -4 15 -8 15 -10z m183 3 c6 3 7 1 3 -5 -4 -7 -19 -10 -34 -7 -15 3
-21 2 -14 -1 6 -3 10 -10 6 -15 -3 -5 -13 -5 -25 1 -13 8 -19 7 -19 0 0 -6 -4
-8 -10 -5 -6 4 -5 13 2 24 9 15 18 17 46 10 20 -4 40 -5 45 -2z m100 -15 c-13
-2 -23 -10 -23 -20 0 -13 -2 -14 -12 -3 -11 11 -10 14 0 18 6 3 10 8 7 12 -2
5 8 6 23 2 25 -5 25 -6 5 -9z m57 1 c0 -10 -4 -14 -8 -8 -4 6 -11 13 -16 18
-5 4 -2 7 7 7 10 0 17 -8 17 -17z m-358 -15 c-9 -9 -15 -9 -24 0 -9 9 -7 12
12 12 19 0 21 -3 12 -12z m84 -3 c-5 -13 5 -20 27 -16 4 0 7 -3 7 -8 0 -6 -11
-9 -25 -8 -14 1 -25 5 -25 10 0 4 0 14 0 22 0 8 5 15 11 15 6 0 9 -7 5 -15z
m-46 -5 c0 -5 -2 -10 -4 -10 -3 0 -8 5 -11 10 -3 6 -1 10 4 10 6 0 11 -4 11
-10z m194 -31 c-3 -5 -10 -7 -15 -3 -5 3 -7 10 -3 15 3 5 10 7 15 3 5 -3 7
-10 3 -15z m141 -11 c6 -4 0 -8 -12 -8 -16 0 -21 4 -16 15 3 9 8 12 12 8 3 -4
11 -11 16 -15z m-26 -37 c10 -6 10 -10 1 -16 -7 -4 -19 0 -28 9 -14 13 -14 16
-2 16 8 0 21 -4 29 -9z m186 -1 c-11 -5 -27 -9 -35 -9 -9 0 -8 4 5 9 11 5 27
9 35 9 9 0 8 -4 -5 -9z m-81 -19 c10 -16 -18 -28 -78 -34 l-58 -6 33 18 c25
13 42 16 62 10 23 -7 28 -5 23 6 -6 16 9 21 18 6z m236 5 c0 -3 -4 -8 -10 -11
-5 -3 -10 -1 -10 4 0 6 5 11 10 11 6 0 10 -2 10 -4z m-4860 -16 c0 -5 -4 -10
-10 -10 -5 0 -10 5 -10 10 0 6 5 10 10 10 6 0 10 -4 10 -10z m355 0 c3 -5 1
-10 -4 -10 -6 0 -11 5 -11 10 0 6 2 10 4 10 3 0 8 -4 11 -10z m4015 -4 c0 -3
-4 -8 -10 -11 -5 -3 -10 -1 -10 4 0 6 5 11 10 11 6 0 10 -2 10 -4z m300 -6 c0
-5 -4 -10 -10 -10 -5 0 -10 5 -10 10 0 6 5 10 10 10 6 0 10 -4 10 -10z m50 0
c0 -5 -7 -10 -15 -10 -8 0 -15 5 -15 10 0 6 7 10 15 10 8 0 15 -4 15 -10z m88
-14 c-7 -8 -15 -12 -17 -11 -5 6 10 25 20 25 5 0 4 -6 -3 -14z m82 4 c0 -5
-10 -10 -22 -9 -22 0 -22 1 -3 9 11 5 21 9 23 9 1 1 2 -3 2 -9z m-153 -26 c3
-8 -18 -11 -62 -11 -43 0 -65 3 -65 11 0 16 122 15 127 0z m-4765 -26 c-7 -7
-12 -8 -12 -2 0 14 12 26 19 19 2 -3 -1 -11 -7 -17z m4963 12 c4 -7 -3 -8 -22
-4 -38 9 -42 14 -10 14 14 0 29 -5 32 -10z m-4690 -40 c3 -5 2 -10 -4 -10 -5
0 -13 5 -16 10 -3 6 -2 10 4 10 5 0 13 -4 16 -10z m65 -19 c0 -6 -4 -13 -10
-16 -5 -3 -10 1 -10 9 0 9 5 16 10 16 6 0 10 -4 10 -9z m60 -40 c0 -5 -9 -7
-20 -4 -11 3 -20 7 -20 9 0 2 9 4 20 4 11 0 20 -4 20 -9z m1832 -11 c26 0 29
-2 18 -15 -22 -26 -80 0 -63 29 4 6 8 5 11 -2 2 -7 17 -12 34 -12z m-1972 -24
c0 -3 -4 -8 -10 -11 -5 -3 -10 -1 -10 4 0 6 5 11 10 11 6 0 10 -2 10 -4z
m2116 -22 c13 -3 22 -9 20 -13 -2 -3 14 -7 36 -8 22 0 45 -6 51 -12 8 -8 8
-11 -2 -11 -7 0 -9 -4 -6 -10 12 -20 -93 -24 -152 -5 -30 10 -38 36 -12 42 13
4 18 11 14 20 -4 11 -1 13 11 9 9 -3 27 -9 40 -12z m-2168 -11 c-4 -20 -68
-32 -68 -14 0 6 9 11 19 11 11 0 23 5 26 10 10 17 27 11 23 -7z m1962 -13 c0
-13 -30 -13 -50 0 -11 7 -7 10 18 10 17 0 32 -4 32 -10z m-2086 -18 c2 -4 -5
-9 -17 -9 -17 -2 -19 0 -7 7 18 12 18 12 24 2z m1973 -24 c-3 -8 -6 -5 -6 6
-1 11 2 17 5 13 3 -3 4 -12 1 -19z m-2007 -8 c0 -5 -5 -10 -11 -10 -5 0 -7 5
-4 10 3 6 8 10 11 10 2 0 4 -4 4 -10z m2525 -20 c3 -5 -5 -16 -18 -24 -18 -12
-31 -14 -58 -6 -29 9 -38 7 -63 -11 -23 -18 -33 -20 -47 -10 -10 6 -31 11 -46
11 -25 1 -26 2 -10 11 11 6 34 8 54 4 19 -3 40 -2 46 3 20 16 55 20 91 12 27
-6 33 -5 29 6 -6 16 13 19 22 4z m-408 -26 c-3 -3 -12 -4 -19 -1 -8 3 -5 6 6
6 11 1 17 -2 13 -5z m450 0 c-3 -3 -12 -4 -19 -1 -8 3 -5 6 6 6 11 1 17 -2 13
-5z m-383 -12 c5 -9 -41 -8 -51 1 -3 4 5 7 20 7 14 0 28 -4 31 -8z m366 -22
c0 -5 -4 -10 -10 -10 -5 0 -10 5 -10 10 0 6 5 10 10 10 6 0 10 -4 10 -10z
m510 0 c12 -8 12 -10 -5 -10 -11 0 -27 5 -35 10 -12 8 -12 10 5 10 11 0 27 -5
35 -10z m-717 -27 c-7 -2 -21 -2 -30 0 -10 3 -4 5 12 5 17 0 24 -2 18 -5z
m-313 -37 c0 -3 -4 -8 -10 -11 -5 -3 -10 -1 -10 4 0 6 5 11 10 11 6 0 10 -2
10 -4z m80 -6 c0 -5 -2 -10 -4 -10 -3 0 -8 5 -11 10 -3 6 -1 10 4 10 6 0 11
-4 11 -10z m50 0 c0 -5 -9 -10 -21 -10 -11 0 -17 5 -14 10 3 6 13 10 21 10 8
0 14 -4 14 -10z m1009 -8 c-7 -3 -17 -10 -21 -16 -5 -7 -8 -5 -8 5 0 22 9 29
28 21 13 -5 14 -6 1 -10z m-926 -3 c-6 -6 -9 -19 -6 -28 8 -21 -1 -12 -16 17
-10 20 -9 22 11 22 16 0 19 -3 11 -11z m877 -9 c11 -8 7 -9 -15 -4 -37 8 -45
14 -19 14 10 0 26 -5 34 -10z m-990 -9 c28 -8 34 -37 8 -35 -16 2 -24 -15 -18
-41 1 -5 3 -19 4 -30 1 -12 5 -26 9 -32 5 -7 0 -9 -11 -6 -30 8 -89 76 -100
116 l-10 37 46 -1 c26 -1 58 -4 72 -8z m361 2 c-10 -4 -5 -10 15 -19 l29 -14
-40 6 c-22 3 -42 8 -45 10 -7 7 22 24 40 23 12 0 12 -2 1 -6z m504 -4 c9 -14
-4 -27 -13 -13 -4 6 -14 14 -22 17 -10 4 -8 6 7 6 12 1 25 -4 28 -10z m247 1
c2 -5 17 -10 35 -12 26 -2 30 -5 20 -16 -7 -9 -13 -10 -15 -3 -2 6 -12 11 -22
11 -9 0 -23 7 -30 15 -8 9 -8 15 -2 15 6 0 12 -4 14 -10z m-667 -20 c-3 -5
-13 -10 -21 -10 -8 0 -12 5 -9 10 3 6 13 10 21 10 8 0 12 -4 9 -10z m-305 -30
c0 -5 -7 -10 -15 -10 -8 0 -15 5 -15 10 0 6 7 10 15 10 8 0 15 -4 15 -10z
m153 -55 c114 -10 95 -28 -44 -41 -63 -6 -107 -12 -99 -14 8 -1 25 -1 37 0 12
1 30 -3 40 -9 14 -8 7 -10 -32 -11 -27 0 -56 4 -63 8 -19 12 -4 42 22 43 21 0
21 0 -1 9 -13 5 -23 16 -23 23 0 11 9 13 43 7 23 -4 77 -11 120 -15z m723 -36
c4 -8 27 -10 63 -6 31 3 47 2 36 -3 -17 -6 -16 -8 13 -14 20 -5 38 -3 47 4 11
9 12 7 8 -10 -5 -17 -10 -20 -27 -14 -11 3 -33 7 -48 7 -16 0 -28 4 -28 8 0 5
-17 9 -37 9 -21 0 -49 3 -62 7 -23 6 -23 7 -5 14 27 11 32 10 40 -2z m151 -66
c29 -3 50 -9 48 -13 -3 -5 -13 -6 -23 -3 -12 3 -19 -1 -19 -11 0 -8 4 -13 9
-10 4 3 16 0 25 -6 14 -9 4 -10 -42 -6 -33 2 -50 2 -37 -1 17 -3 20 -8 13 -17
-7 -8 -6 -17 1 -26 8 -13 9 -12 5 2 -6 18 21 34 35 20 12 -12 -14 -32 -49 -38
-21 -3 -24 -2 -13 6 11 8 7 10 -20 9 -19 -1 -66 4 -105 10 -38 5 -87 7 -108 4
-31 -5 -42 -2 -58 16 -11 11 -16 21 -12 21 4 0 1 5 -7 10 -12 8 -9 10 12 10
20 0 26 -4 23 -17 -2 -14 5 -19 37 -21 25 -2 37 1 33 8 -3 5 -16 10 -27 10
-12 0 -19 2 -16 6 3 3 44 0 91 -7 47 -6 94 -9 104 -5 17 7 17 8 -1 22 -17 12
-18 14 -3 14 9 0 17 7 17 16 0 11 5 14 18 9 9 -4 41 -9 69 -12z m83 -53 c0 -5
-4 -10 -10 -10 -5 0 -10 5 -10 10 0 6 5 10 10 10 6 0 10 -4 10 -10z m-29 -48
c-5 -10 -16 -24 -24 -31 -12 -9 -16 -8 -21 4 -3 9 -2 14 3 11 4 -3 16 3 26 14
23 25 29 26 16 2z m-183 -39 c32 -8 38 -23 8 -23 -14 0 -36 10 -48 22 -19 19
-19 21 -2 13 10 -4 29 -10 42 -12z m102 -13 c12 -8 9 -10 -13 -10 -16 0 -26 4
-22 10 8 12 16 12 35 0z m-2469 -170 c3 0 4 -11 1 -25 -2 -14 -9 -25 -14 -25
-5 0 -6 6 -3 13 4 6 -3 1 -14 -12 -18 -20 -22 -21 -27 -7 -6 16 3 83 13 100 3
5 13 -3 22 -18 8 -14 18 -26 22 -26z m3080 -93 c-5 -5 -18 -6 -28 -2 -10 5
-22 7 -28 6 -5 -1 4 9 20 23 30 24 30 24 38 3 4 -11 3 -25 -2 -30z m-4 -55 c7
-7 13 -19 13 -25 0 -7 -9 -1 -20 13 -11 14 -19 32 -19 40 1 13 1 13 6 0 4 -8
12 -21 20 -28z m-3123 -30 c9 -14 -15 -85 -34 -102 -9 -8 -15 -20 -13 -27 2
-6 -1 -14 -6 -18 -17 -10 -13 55 5 108 15 43 35 60 48 39z m3221 -245 c17 -10
18 -12 3 -15 -16 -3 -78 23 -78 33 0 7 51 -5 75 -18z m-3232 -42 c-3 -8 -9
-15 -14 -15 -10 0 -12 24 -3 33 11 11 24 -3 17 -18z m-103 -30 c-7 -9 -15 -13
-18 -10 -3 2 1 11 8 20 7 9 15 13 18 10 3 -2 -1 -11 -8 -20z m90 -25 c-8 -5
-22 -9 -30 -9 -10 0 -8 3 5 9 27 12 43 12 25 0z m3085 -48 c-3 -3 -11 0 -18 7
-9 10 -8 11 6 5 10 -3 15 -9 12 -12z m-3112 -8 c-3 -16 -30 -16 -36 0 -5 12
-1 15 16 12 12 -1 21 -7 20 -12z m3182 -44 c16 -16 24 -30 19 -30 -6 0 -20 14
-32 30 -13 17 -21 30 -19 30 2 0 16 -13 32 -30z m-29 -12 c10 -12 13 -18 5
-13 -8 4 -16 2 -21 -5 -5 -9 -9 -9 -14 -1 -4 6 -2 11 5 11 7 0 4 7 -7 15 -16
12 -16 14 -3 15 9 0 24 -10 35 -22z m-3206 -33 c-7 -8 -22 -14 -34 -14 -20 1
-20 2 -1 6 11 3 24 9 30 14 15 14 19 10 5 -6z m-100 -35 c20 -6 21 -8 5 -8
-11 0 -33 4 -50 8 -27 7 -27 8 -5 8 14 0 36 -4 50 -8z m87 -1 c-14 -8 -22 -8
-30 0 -8 8 -3 11 19 11 25 -1 27 -2 11 -11z m3164 -7 c3 1 17 -7 33 -19 16
-13 24 -23 18 -23 -6 0 -14 5 -17 10 -3 6 -22 10 -41 10 -23 0 -34 5 -34 14 0
17 22 27 31 14 3 -5 8 -8 10 -6z m49 8 c0 -5 -2 -10 -4 -10 -3 0 -8 5 -11 10
-3 6 -1 10 4 10 6 0 11 -4 11 -10z m-3502 -7 c-10 -2 -26 -2 -35 0 -10 3 -2 5
17 5 19 0 27 -2 18 -5z m3591 -41 c27 -24 44 -48 46 -65 2 -15 0 -27 -3 -27
-11 0 -37 43 -34 56 1 6 -16 23 -38 38 -42 28 -48 36 -27 36 7 0 32 -17 56
-38z m-3419 -2 c0 -5 -2 -10 -4 -10 -3 0 -8 5 -11 10 -3 6 -1 10 4 10 6 0 11
-4 11 -10z m3400 -26 c0 -2 -9 0 -20 6 -11 6 -20 13 -20 16 0 2 9 0 20 -6 11
-6 20 -13 20 -16z m-3461 -23 c10 -6 5 -11 -18 -16 -35 -7 -47 -3 -36 14 8 13
35 14 54 2z m3482 -38 c13 -16 12 -17 -3 -4 -17 13 -22 21 -14 21 2 0 10 -8
17 -17z m-91 -13 c0 -5 -2 -10 -4 -10 -3 0 -8 5 -11 10 -3 6 -1 10 4 10 6 0
11 -4 11 -10z m30 -15 c0 -8 -4 -15 -10 -15 -5 0 -7 7 -4 15 4 8 8 15 10 15 2
0 4 -7 4 -15z m-41 -27 c6 -18 7 -28 2 -23 -10 12 -25 55 -18 55 3 0 10 -15
16 -32z m71 8 c-1 -5 3 -12 8 -15 10 -6 15 -25 13 -51 -2 -23 -34 29 -36 57 0
13 3 22 8 20 5 -1 8 -6 7 -11z m-3310 -16 c0 -5 -4 -10 -10 -10 -5 0 -10 5
-10 10 0 6 5 10 10 10 6 0 10 -4 10 -10z m3151 -22 c19 -21 23 -28 16 -28 -7
0 -47 37 -47 44 0 12 13 6 31 -16z m-3181 -13 c0 -9 7 -26 15 -38 13 -20 12
-26 -5 -52 -19 -29 -22 -30 -82 -27 -93 6 -98 12 -48 60 53 53 80 72 102 72
10 0 18 -7 18 -15z m3350 -55 c0 -5 -4 -10 -10 -10 -5 0 -10 5 -10 10 0 6 5
10 10 10 6 0 10 -4 10 -10z m-127 -16 c28 -5 37 -11 33 -21 -4 -8 -6 -19 -6
-25 0 -6 -7 -8 -14 -5 -10 4 -13 1 -9 -9 3 -8 -3 -24 -12 -34 -18 -20 -36 -27
-34 -12 3 20 -3 30 -18 28 -10 0 -18 6 -18 14 0 8 -6 26 -14 39 -11 20 -11 25
0 32 8 5 23 7 34 4 11 -3 37 -8 58 -11z m-3303 -155 c-21 -18 -36 -25 -39 -18
-4 14 38 49 59 48 9 0 1 -12 -20 -30z m3396 -5 c-3 -9 -6 -22 -6 -30 0 -21
-27 -29 -45 -14 -14 12 -13 16 6 37 26 27 54 31 45 7z m-3566 -6 c0 -5 -18 -7
-40 -6 -21 1 -37 5 -34 10 6 10 74 6 74 -4z m-2 -40 c-3 -7 -15 -15 -27 -16
-14 -2 -21 0 -17 6 3 6 0 13 -6 15 -7 3 2 6 20 6 23 1 32 -3 30 -11z m3516
-16 c3 -5 -1 -9 -9 -9 -8 0 -15 4 -15 9 0 4 4 8 9 8 6 0 12 -4 15 -8z m-188
-57 c13 -4 14 -8 4 -20 -16 -19 -30 -19 -30 0 0 8 -4 15 -10 15 -5 0 -10 4
-10 10 0 5 7 7 15 5 8 -3 22 -7 31 -10z m219 -5 c-3 -5 -11 -10 -16 -10 -6 0
-7 5 -4 10 3 6 11 10 16 10 6 0 7 -4 4 -10z m-3565 -25 c6 -8 9 -19 5 -24 -3
-6 3 -18 15 -28 23 -20 27 -75 8 -90 -17 -13 -51 -3 -82 24 -27 24 -33 47 -16
58 6 3 10 17 10 30 0 13 8 29 18 34 23 14 28 13 42 -4z m3390 5 c0 -5 -8 -10
-17 -10 -15 0 -16 2 -3 10 19 12 20 12 20 0z m-3300 -20 c0 -5 -2 -10 -4 -10
-3 0 -8 5 -11 10 -3 6 -1 10 4 10 6 0 11 -4 11 -10z m3527 -96 c-3 -3 -12 -4
-19 -1 -8 3 -5 6 6 6 11 1 17 -2 13 -5z m-3649 -70 c15 -7 20 -13 12 -13 -8 0
-22 3 -30 9 -9 6 -20 5 -30 -3 -8 -6 -12 -8 -8 -3 4 5 1 15 -7 23 -8 8 -15 22
-15 30 0 13 5 11 25 -7 14 -14 38 -30 53 -36z m3586 -40 c3 -8 2 -12 -4 -9 -6
3 -10 10 -10 16 0 14 7 11 14 -7z m460 -451 c10 -26 0 -25 -18 1 -13 20 -13
24 -2 20 8 -3 17 -13 20 -21z"/>
<path d="M3605 3680 c-3 -5 -2 -10 4 -10 5 0 13 5 16 10 3 6 2 10 -4 10 -5 0
-13 -4 -16 -10z"/>
<path d="M3860 3660 c-10 -27 -4 -50 18 -60 14 -6 27 -8 30 -5 3 3 0 5 -6 5
-7 0 -12 7 -12 15 0 8 -4 15 -9 15 -5 0 -12 8 -14 18 -3 9 -6 15 -7 12z"/>
<path d="M3800 3640 c-8 -5 -11 -12 -8 -16 10 -9 38 3 38 16 0 12 -10 13 -30
0z"/>
<path d="M4023 3604 c3 -4 2 -15 -4 -25 -9 -17 -6 -19 28 -18 33 0 35 1 16 9
-13 5 -23 16 -23 25 0 8 -5 15 -12 15 -6 0 -8 -3 -5 -6z"/>
<path d="M2160 2900 c0 -5 5 -10 11 -10 5 0 7 5 4 10 -3 6 -8 10 -11 10 -2 0
-4 -4 -4 -10z"/>
<path d="M810 2190 c0 -11 2 -20 4 -20 2 0 6 9 9 20 3 11 1 20 -4 20 -5 0 -9
-9 -9 -20z"/>
<path d="M4040 1585 c7 -9 15 -13 17 -11 7 7 -7 26 -19 26 -6 0 -6 -6 2 -15z"/>
<path d="M4463 3376 c-22 -11 -22 -12 -2 -24 22 -14 39 -8 39 13 0 21 -13 25
-37 11z m22 -24 c-3 -3 -11 0 -18 7 -9 10 -8 11 6 5 10 -3 15 -9 12 -12z"/>
<path d="M285 3360 c19 -21 35 -18 35 6 0 9 -10 14 -27 14 -25 0 -26 -1 -8
-20z"/>
<path d="M4574 3276 c-5 -13 -9 -14 -14 -6 -5 9 -9 9 -14 1 -4 -6 -2 -11 4
-11 6 0 8 -4 5 -10 -3 -5 -2 -10 2 -10 11 0 36 41 29 47 -3 3 -9 -2 -12 -11z"/>
<path d="M4700 3274 c0 -11 -5 -14 -16 -10 -11 4 -14 1 -12 -11 4 -23 24 -27
32 -6 3 10 9 24 12 31 3 6 1 12 -5 12 -6 0 -11 -7 -11 -16z"/>
<path d="M4632 3246 c1 -10 8 -17 13 -17 15 1 12 24 -3 29 -9 3 -13 -2 -10
-12z"/>
<path d="M4977 3253 c-4 -3 -2 -12 4 -20 9 -10 3 -13 -32 -14 -24 -1 -37 -3
-27 -6 9 -2 23 -22 32 -44 9 -21 22 -39 30 -39 13 0 13 4 0 28 -19 36 -18 56
2 48 8 -3 13 -2 10 3 -9 14 32 20 64 11 23 -7 30 -5 30 6 0 15 -8 17 -53 14
-15 -1 -34 3 -41 9 -7 6 -16 8 -19 4z"/>
<path d="M4923 3243 c9 -2 23 -2 30 0 6 3 -1 5 -18 5 -16 0 -22 -2 -12 -5z"/>
<path d="M4763 3233 c-24 -9 -13 -20 17 -15 17 2 30 8 30 13 0 10 -27 11 -47
2z"/>
<path d="M4720 3215 c0 -8 5 -15 10 -15 6 0 10 7 10 15 0 8 -4 15 -10 15 -5 0
-10 -7 -10 -15z"/>
<path d="M507 3190 c3 -11 7 -20 9 -20 2 0 4 9 4 20 0 11 -4 20 -9 20 -5 0 -7
-9 -4 -20z"/>
<path d="M4783 3203 c9 -2 23 -2 30 0 6 3 -1 5 -18 5 -16 0 -22 -2 -12 -5z"/>
<path d="M5028 3198 c16 -16 15 -45 0 -51 -8 -2 -9 -8 -4 -13 5 -5 11 -4 13 4
7 18 21 15 27 -5 2 -10 2 -1 -1 20 -4 31 -3 36 11 31 9 -3 16 -2 16 4 0 15
-28 22 -34 9 -5 -9 -7 -9 -12 1 -3 6 -11 12 -17 12 -8 0 -7 -4 1 -12z"/>
<path d="M4678 3183 c6 -2 18 -2 25 0 6 3 1 5 -13 5 -14 0 -19 -2 -12 -5z"/>
<path d="M4820 3174 c0 -8 5 -12 10 -9 6 3 10 10 10 16 0 5 -4 9 -10 9 -5 0
-10 -7 -10 -16z"/>
<path d="M4746 3171 c-4 -7 -5 -15 -2 -18 9 -9 19 4 14 18 -4 11 -6 11 -12 0z"/>
<path d="M4909 3178 c-5 -17 -4 -48 3 -48 4 0 7 11 6 25 -2 21 -6 31 -9 23z"/>
<path d="M5000 3170 c0 -5 5 -10 10 -10 6 0 10 5 10 10 0 6 -4 10 -10 10 -5 0
-10 -4 -10 -10z"/>
<path d="M4650 3160 c0 -6 17 -10 37 -10 43 0 41 5 -4 13 -19 4 -33 2 -33 -3z"/>
<path d="M306 3142 c-3 -6 -1 -14 5 -17 14 -9 20 -2 10 14 -6 8 -11 9 -15 3z"/>
<path d="M4800 3140 c0 -5 5 -10 10 -10 6 0 10 5 10 10 0 6 -4 10 -10 10 -5 0
-10 -4 -10 -10z"/>
<path d="M4938 3123 c7 -3 16 -2 19 1 4 3 -2 6 -13 5 -11 0 -14 -3 -6 -6z"/>
<path d="M444 3069 c-3 -6 -1 -16 5 -22 8 -8 11 -5 11 11 0 24 -5 28 -16 11z"/>
<path d="M482 3045 c-7 -8 -9 -15 -4 -15 5 0 15 7 22 15 16 19 -1 19 -18 0z"/>
<path d="M505 3020 c-3 -5 -1 -10 4 -10 6 0 11 5 11 10 0 6 -2 10 -4 10 -3 0
-8 -4 -11 -10z"/>
<path d="M566 2973 c-6 -14 -5 -15 5 -6 7 7 10 15 7 18 -3 3 -9 -2 -12 -12z"/>
<path d="M663 2493 c9 -2 23 -2 30 0 6 3 -1 5 -18 5 -16 0 -22 -2 -12 -5z"/>
<path d="M3885 2209 c-4 -6 -5 -12 -2 -15 2 -3 7 2 10 11 7 17 1 20 -8 4z"/>
<path d="M3900 2188 c0 -14 18 -17 28 -5 8 10 6 13 -9 13 -10 0 -19 -4 -19 -8z"/>
<path d="M395 1480 c-17 -11 -23 -20 -15 -20 17 1 56 28 49 34 -3 3 -18 -4
-34 -14z"/>
<path d="M422 1298 c-16 -16 -15 -25 1 -25 7 0 13 9 13 19 0 21 1 21 -14 6z"/>
<path d="M4365 460 c3 -5 8 -10 11 -10 2 0 4 5 4 10 0 6 -5 10 -11 10 -5 0 -7
-4 -4 -10z"/>
</g>
</svg>
